<?xml version="1.0" encoding="UTF-8" standalone="no"?>
<svg
   xmlns:dc="http://purl.org/dc/elements/1.1/"
   xmlns:cc="http://creativecommons.org/ns#"
   xmlns:rdf="http://www.w3.org/1999/02/22-rdf-syntax-ns#"
   xmlns:svg="http://www.w3.org/2000/svg"
   xmlns="http://www.w3.org/2000/svg"
   xmlns:sodipodi="http://sodipodi.sourceforge.net/DTD/sodipodi-0.dtd"
   xmlns:inkscape="http://www.inkscape.org/namespaces/inkscape"
   width="1614.239"
   height="867.767"
   sodipodi:version="0.32"
   inkscape:version="0.45+0.46pre2+devel"
   inkscape:output_extension="org.inkscape.output.svg.inkscape">
  <defs
     id="defs4">
    <inkscape:perspective
       sodipodi:type="inkscape:persp3d"
       inkscape:vp_x="-50 : 600 : 1"
       inkscape:vp_y="0 : 1000 : 0"
       inkscape:vp_z="700 : 600 : 1"
       inkscape:persp3d-origin="300 : 400 : 1"
       id="perspective2697" />
    <inkscape:perspective
       sodipodi:type="inkscape:persp3d"
       inkscape:vp_x="-50 : 600 : 1"
       inkscape:vp_y="0 : 1000 : 0"
       inkscape:vp_z="700 : 600 : 1"
       inkscape:persp3d-origin="300 : 400 : 1"
       id="perspective2636" />
    <inkscape:perspective
       sodipodi:type="inkscape:persp3d"
       inkscape:vp_x="-50 : 600 : 1"
       inkscape:vp_y="0 : 1000 : 0"
       inkscape:vp_z="700 : 600 : 1"
       inkscape:persp3d-origin="300 : 400 : 1"
       id="perspective2462" />
    <inkscape:perspective
       sodipodi:type="inkscape:persp3d"
       inkscape:vp_x="-50 : 600 : 1"
       inkscape:vp_y="0 : 1000 : 0"
       inkscape:vp_z="700 : 600 : 1"
       inkscape:persp3d-origin="300 : 400 : 1"
       id="perspective2420" />
    <inkscape:perspective
       sodipodi:type="inkscape:persp3d"
       inkscape:vp_x="-50 : 600 : 1"
       inkscape:vp_y="0 : 1000 : 0"
       inkscape:vp_z="700 : 600 : 1"
       inkscape:persp3d-origin="300 : 400 : 1"
       id="perspective2544" />
    <inkscape:perspective
       sodipodi:type="inkscape:persp3d"
       inkscape:vp_x="-50 : 600 : 1"
       inkscape:vp_y="0 : 1000 : 0"
       inkscape:vp_z="700 : 600 : 1"
       inkscape:persp3d-origin="300 : 400 : 1"
       id="perspective2398" />
    <inkscape:perspective
       sodipodi:type="inkscape:persp3d"
       inkscape:vp_x="-50 : 600 : 1"
       inkscape:vp_y="0 : 1000 : 0"
       inkscape:vp_z="700 : 600 : 1"
       inkscape:persp3d-origin="300 : 400 : 1"
       id="perspective10" />
    <inkscape:perspective
       id="perspective2651"
       inkscape:persp3d-origin="300 : 400 : 1"
       inkscape:vp_z="700 : 600 : 1"
       inkscape:vp_y="0 : 1000 : 0"
       inkscape:vp_x="-50 : 600 : 1"
       sodipodi:type="inkscape:persp3d" />
  </defs>
  <sodipodi:namedview
     id="base"
     pagecolor="#ffffff"
     bordercolor="#666666"
     borderopacity="1.0"
     gridtolerance="10000"
     guidetolerance="10"
     objecttolerance="10"
     inkscape:pageopacity="0.0"
     inkscape:pageshadow="2"
     inkscape:zoom="0.35"
     inkscape:cx="130.32348"
     inkscape:cy="135.1927"
     inkscape:document-units="px"
     inkscape:current-layer="layer1"
     showgrid="false"
     inkscape:window-width="1389"
     inkscape:window-height="991"
     inkscape:window-x="3"
     inkscape:window-y="30"
     showguides="true"
     inkscape:guide-bbox="true" />
  <metadata
     id="metadata7">
    <rdf:RDF>
      <cc:Work
         rdf:about="">
        <dc:format>image/svg+xml</dc:format>
        <dc:type
           rdf:resource="http://purl.org/dc/dcmitype/StillImage" />
      </cc:Work>
    </rdf:RDF>
  </metadata>
  <g
     inkscape:label="Layer 1"
     inkscape:groupmode="layer"
     id="layer1">
    <path
       style="font-size:104.05401611px;font-style:normal;font-weight:normal;fill:#acacac;fill-opacity:1;stroke:none;stroke-width:1px;stroke-linecap:butt;stroke-linejoin:miter;stroke-opacity:1;font-family:Bitstream Vera Sans"
       d="M 71.725977,704.23098 L 50,704.23098 L 50,49.999571 L 71.725977,49.999571 L 71.725977,704.23098 z M 128.29011,704.23098 L 117.98442,704.23098 L 117.98442,49.999571 L 128.29011,49.999571 L 128.29011,704.23098 z M 94.389354,704.23098 L 83.900755,704.23098 L 83.900755,49.999571 L 94.389354,49.999571 L 94.389354,704.23098 z M 207.52334,704.23098 L 174.37707,704.23098 L 174.37707,49.999571 L 207.52334,49.999571 L 207.52334,704.23098 z M 286.56794,704.23098 L 264.83625,704.23098 L 264.83625,49.999571 L 286.56794,49.999571 L 286.56794,704.23098 z M 230.00381,704.23098 L 219.69811,704.23098 L 219.69811,49.999571 L 230.00381,49.999571 L 230.00381,704.23098 z M 377.04426,704.23098 L 355.31257,704.23098 L 355.31257,49.999571 L 377.04426,49.999571 L 377.04426,704.23098 z M 309.24275,704.23098 L 298.75415,704.23098 L 298.75415,49.999571 L 309.24275,49.999571 L 309.24275,704.23098 z M 399.70192,704.23098 L 389.21332,704.23098 L 389.21332,49.999571 L 399.70192,49.999571 L 399.70192,704.23098 z M 444.8572,704.23098 L 423.13123,704.23098 L 423.13123,49.999571 L 444.8572,49.999571 L 444.8572,704.23098 z M 535.32209,704.23098 L 525.0164,704.23098 L 525.0164,49.999571 L 535.32209,49.999571 L 535.32209,704.23098 z M 501.42134,704.23098 L 491.11564,704.23098 L 491.11564,49.999571 L 501.42134,49.999571 L 501.42134,704.23098 z M 625.79841,704.23098 L 604.06672,704.23098 L 604.06672,49.999571 L 625.79841,49.999571 L 625.79841,704.23098 z M 557.9969,704.23098 L 547.5083,704.23098 L 547.5083,49.999571 L 557.9969,49.999571 L 557.9969,704.23098 z M 648.45607,704.23098 L 637.96747,704.23098 L 637.96747,49.999571 L 648.45607,49.999571 L 648.45607,704.23098 z M 772.83315,704.23098 L 728.44379,704.23098 L 728.44379,49.999571 L 772.83315,49.999571 L 772.83315,704.23098 z M 682.37398,704.23098 L 671.88538,704.23098 L 671.88538,49.999571 L 682.37398,49.999571 L 682.37398,704.23098 z M 705.03164,704.23098 L 694.54304,704.23098 L 694.54304,49.999571 L 705.03164,49.999571 L 705.03164,704.23098 z M 840.65181,704.23098 L 818.92011,704.23098 L 818.92011,49.999571 L 840.65181,49.999571 L 840.65181,704.23098 z M 806.75105,704.23098 L 796.26245,704.23098 L 796.26245,49.999571 L 806.75105,49.999571 L 806.75105,704.23098 z M 874.55256,704.23098 L 864.24687,704.23098 L 864.24687,49.999571 L 874.55256,49.999571 L 874.55256,704.23098 z M 1032.8304,704.23098 L 1011.0987,704.23098 L 1011.0987,49.999571 L 1032.8304,49.999571 L 1032.8304,704.23098 z M 931.12813,704.23098 L 920.63953,704.23098 L 920.63953,49.999571 L 931.12813,49.999571 L 931.12813,704.23098 z M 987.68654,704.23098 L 977.19794,704.23098 L 977.19794,49.999571 L 987.68654,49.999571 L 987.68654,704.23098 z M 1123.3067,704.23098 L 1101.575,704.23098 L 1101.575,49.999571 L 1123.3067,49.999571 L 1123.3067,704.23098 z M 1055.5052,704.23098 L 1045.0166,704.23098 L 1045.0166,49.999571 L 1055.5052,49.999571 L 1055.5052,704.23098 z M 1145.9644,704.23098 L 1135.4758,704.23098 L 1135.4758,49.999571 L 1145.9644,49.999571 L 1145.9644,704.23098 z M 1247.6838,704.23098 L 1225.9521,704.23098 L 1225.9521,49.999571 L 1247.6838,49.999571 L 1247.6838,704.23098 z M 1179.8823,704.23098 L 1169.3937,704.23098 L 1169.3937,49.999571 L 1179.8823,49.999571 L 1179.8823,704.23098 z M 1213.783,704.23098 L 1203.2944,704.23098 L 1203.2944,49.999571 L 1213.783,49.999571 L 1213.783,704.23098 z M 1338.1601,704.23098 L 1293.7708,704.23098 L 1293.7708,49.999571 L 1338.1601,49.999571 L 1338.1601,704.23098 z M 1405.9616,704.23098 L 1395.6559,704.23098 L 1395.6559,49.999571 L 1405.9616,49.999571 L 1405.9616,704.23098 z M 1372.0609,704.23098 L 1361.7552,704.23098 L 1361.7552,49.999571 L 1372.0609,49.999571 L 1372.0609,704.23098 z M 1507.6753,704.23098 L 1474.7062,704.23098 L 1474.7062,49.999571 L 1507.6753,49.999571 L 1507.6753,704.23098 z M 1439.8738,704.23098 L 1418.1478,704.23098 L 1418.1478,49.999571 L 1439.8738,49.999571 L 1439.8738,704.23098 z M 1564.2394,704.23098 L 1542.5078,704.23098 L 1542.5078,49.999571 L 1564.2394,49.999571 L 1564.2394,704.23098 z M 1530.3387,704.23098 L 1520.033,704.23098 L 1520.033,49.999571 L 1530.3387,49.999571 L 1530.3387,704.23098 z"
       id="text2552"
       sodipodi:nodetypes="ccccccccccccccccccccccccccccccccccccccccccccccccccccccccccccccccccccccccccccccccccccccccccccccccccccccccccccccccccccccccccccccccccccccccccccccccccccccccccccccccccccccccccccccccccccccccc" />
  </g>
</svg>
