<svg xmlns="http://www.w3.org/2000/svg" width="126" height="90" viewBox="0 0 126 90">
  <defs>
    <linearGradient id="pgto-boleto-maior-a" x1="889.376%" x2="0%" y1="17.381%" y2="100%">
      <stop offset="0%" stop-color="#71D9A3"/>
      <stop offset="100%" stop-color="#3BB3A0"/>
    </linearGradient>
    <linearGradient id="pgto-boleto-maior-b" x1="366.071%" x2="0%" y1="-146.973%" y2="100%">
      <stop offset="0%" stop-color="#71D9A3"/>
      <stop offset="100%" stop-color="#3BB3A0"/>
    </linearGradient>
  </defs>
  <g fill="none" fill-rule="evenodd">
    <path fill="#000" d="M8.76924301,2.56944332 L95.0360446,2.56944332 L123.162011,33.3381547 L123.162011,77.535365 C121.822807,83.7816968 117.474421,86.9048628 110.116852,86.9048628 C102.759284,86.9048628 69.7224699,86.9048628 11.0064096,86.9048628 C4.73141245,85.260901 1.59391388,80.5904592 1.59391388,72.8935375 C1.59391388,65.1966157 1.59391388,44.7234586 1.59391388,11.4740661 L8.76924301,2.56944332 Z"/>
    <path fill="#626262" fill-rule="nonzero" d="M11.8125,90 L114.1875,90 C120.684375,90 126,84.2417062 126,77.2037915 L126,32.4170616 L96.075,0 L11.8125,0 C5.315625,0 0,5.75829384 0,12.7962085 L0,76.9905213 C0,84.2417062 5.315625,90 11.8125,90 Z M97.25625,7.46445498 L119.30625,31.3507109 L105.13125,31.3507109 C100.8,31.3507109 97.25625,27.5118483 97.25625,22.8199052 L97.25625,7.46445498 Z M3.9375,12.7962085 C3.9375,8.1042654 7.48125,4.26540284 11.8125,4.26540284 L93.31875,4.26540284 L93.31875,22.6066351 C93.31875,29.6445498 98.634375,35.4028436 105.13125,35.4028436 L122.0625,35.4028436 L122.0625,76.9905213 C122.0625,81.6824645 118.51875,85.521327 114.1875,85.521327 L11.8125,85.521327 C7.48125,85.521327 3.9375,81.6824645 3.9375,76.9905213 L3.9375,12.7962085 Z"/>
    <g fill-rule="nonzero" transform="translate(11.456 15.517)">
      <rect width="9.844" height="18" x="10.2" y="44.483" fill="url(#pgto-boleto-maior-a)"/>
      <rect width="5.906" height="18" x="23.981" y="44.483" fill="url(#pgto-boleto-maior-a)"/>
      <rect width="5.906" height="18" x="73.2" y="44.483" fill="url(#pgto-boleto-maior-a)"/>
      <rect width="7.875" height="18" x="33.825" y="44.483" fill="url(#pgto-boleto-maior-a)"/>
      <rect width="7.875" height="18" x="85.013" y="44.483" fill="url(#pgto-boleto-maior-a)"/>
      <rect width="5.906" height="18" x="43.669" y="44.483" fill="url(#pgto-boleto-maior-a)"/>
      <rect width="7.875" height="18" x="51.544" y="44.483" fill="url(#pgto-boleto-maior-a)"/>
      <rect width="3.938" height="18" x=".356" y="44.483" fill="url(#pgto-boleto-maior-a)"/>
      <rect width="3.938" height="18" x="63.356" y="44.483" fill="url(#pgto-boleto-maior-a)"/>
      <rect width="3.938" height="18" x="98.794" y="44.483" fill="url(#pgto-boleto-maior-a)"/>
      <path fill="url(#pgto-boleto-maior-b)" d="M67.1782669.482758621L2.44058591.482758621C1.28797658.482758621.356301414 1.37875862.356301414 2.48275862.356301414 3.58675862 1.28797658 4.48275862 2.44058591 4.48275862L67.1782669 4.48275862C68.3308762 4.48275862 69.2625514 3.58675862 69.2625514 2.48275862 69.2625514 1.37875862 68.3308762.482758621 67.1782669.482758621zM53.44709 12.4827586L2.39051287 12.4827586C1.26559393 12.4827586.356301414 13.3787586.356301414 14.4827586.356301414 15.5867586 1.26559393 16.4827586 2.39051287 16.4827586L53.44709 16.4827586C54.5720089 16.4827586 55.4813014 15.5867586 55.4813014 14.4827586 55.4813014 13.3787586 54.5720089 12.4827586 53.44709 12.4827586zM4.29380141 24.4827586L2.32505141 24.4827586C1.23633266 24.4827586.356301414 25.3787586.356301414 26.4827586.356301414 27.5867586 1.23633266 28.4827586 2.32505141 28.4827586L4.29380141 28.4827586C5.38252016 28.4827586 6.26255141 27.5867586 6.26255141 26.4827586 6.26255141 25.3787586 5.38252016 24.4827586 4.29380141 24.4827586zM16.1063014 24.4827586L12.1688014 24.4827586C11.0800827 24.4827586 10.2000514 25.3787586 10.2000514 26.4827586 10.2000514 27.5867586 11.0800827 28.4827586 12.1688014 28.4827586L16.1063014 28.4827586C17.1950202 28.4827586 18.0750514 27.5867586 18.0750514 26.4827586 18.0750514 25.3787586 17.1950202 24.4827586 16.1063014 24.4827586zM27.9188014 24.4827586L25.9500514 24.4827586C24.8613327 24.4827586 23.9813014 25.3787586 23.9813014 26.4827586 23.9813014 27.5867586 24.8613327 28.4827586 25.9500514 28.4827586L27.9188014 28.4827586C29.0075202 28.4827586 29.8875514 27.5867586 29.8875514 26.4827586 29.8875514 25.3787586 29.0075202 24.4827586 27.9188014 24.4827586zM39.7313014 24.4827586L35.7938014 24.4827586C34.7050827 24.4827586 33.8250514 25.3787586 33.8250514 26.4827586 33.8250514 27.5867586 34.7050827 28.4827586 35.7938014 28.4827586L39.7313014 28.4827586C40.8200202 28.4827586 41.7000514 27.5867586 41.7000514 26.4827586 41.7000514 25.3787586 40.8200202 24.4827586 39.7313014 24.4827586zM46.2084889 25.0412492C45.8521452 25.4236391 45.6375514 25.9469096 45.6375514 26.47018 45.6375514 26.9934504 45.8521452 27.5167209 46.2084889 27.8991108 46.5805827 28.261375 47.0944264 28.4827586 47.6063014 28.4827586 48.1181764 28.4827586 48.6300514 28.261375 49.0041139 27.8991108 49.3584889 27.5167209 49.5750514 26.9934504 49.5750514 26.47018 49.5750514 25.9469096 49.3584889 25.4236391 49.0041139 25.0412492 48.2559889 24.2965951 46.9152702 24.2965951 46.2084889 25.0412492z"/>
    </g>
  </g>
</svg>
