<?xml version="1.0" encoding="UTF-8"?>
<svg width="29px" height="30px" viewBox="0 0 29 30" version="1.1" xmlns="http://www.w3.org/2000/svg" xmlns:xlink="http://www.w3.org/1999/xlink">
    <!-- Generator: Sketch 48.2 (47327) - http://www.bohemiancoding.com/sketch -->
    <title>carrinho</title>
    <desc>Created with Sketch.</desc>
    <defs></defs>
    <g id="01-SEUS-DADOS" stroke="none" stroke-width="1" transform="translate(-141.000000, -145.000000)">
        <g id="SUA-COMPRA" transform="translate(120.000000, 121.000000)">
            <g id="Sua-compra" transform="translate(21.000000, 24.000000)">
                <g id="carrinho">
                    <g id="Shape">
                        <path d="M8.26504209,19.7527328 L25.4597288,19.7527328 C27.4094434,19.7527328 29,18.223658 29,16.3493083 L29,9.39448434 C29,9.38831871 29,9.37598746 29,9.36982184 C29,9.35132497 29,9.33899372 29,9.32049685 C29,9.3081656 29,9.29583435 28.9935865,9.2835031 C28.9935865,9.27117185 28.9871729,9.25267498 28.9871729,9.24034373 C28.9871729,9.22801249 28.9807594,9.21568124 28.9807594,9.20334999 C28.9743459,9.19101874 28.9743459,9.17868749 28.9679323,9.16019062 C28.9615188,9.14785937 28.9615188,9.13552812 28.9551053,9.12319688 C28.9486917,9.11086563 28.9486917,9.09853438 28.9422782,9.08620313 C28.9358647,9.07387188 28.9294511,9.06154064 28.9230376,9.04304376 C28.916624,9.03071251 28.9102105,9.01838127 28.903797,9.01221564 C28.8973834,8.99988439 28.8909699,8.98755315 28.8845564,8.9752219 C28.8781428,8.96289065 28.8717293,8.95672503 28.8653158,8.94439378 C28.8589022,8.93206253 28.8460752,8.91973128 28.8396616,8.90740003 C28.8332481,8.89506879 28.8268346,8.88890316 28.8140075,8.87657191 C28.807594,8.86424066 28.7947669,8.85807504 28.7883534,8.84574379 C28.7819398,8.83341254 28.7691127,8.82724692 28.7626992,8.81491567 C28.7562857,8.80258442 28.7434586,8.7964188 28.7370451,8.79025318 C28.724218,8.77792193 28.7178045,8.7717563 28.7049774,8.75942506 C28.6921503,8.75325943 28.6857368,8.74092818 28.6729097,8.73476256 C28.6600827,8.72859694 28.6472556,8.71626569 28.6344285,8.71010006 C28.6216014,8.70393444 28.6151879,8.69776881 28.6023608,8.69160319 C28.5895338,8.68543757 28.5767067,8.67927194 28.5638796,8.66694069 C28.5510526,8.66077507 28.5382255,8.65460945 28.5253984,8.64844382 C28.5125714,8.6422782 28.4997443,8.63611257 28.4869172,8.62994695 C28.4740901,8.62378133 28.4612631,8.6176157 28.448436,8.61145008 C28.4356089,8.60528445 28.4227819,8.60528445 28.4099548,8.59911883 C28.3971277,8.59295321 28.3778871,8.58678758 28.3650601,8.58678758 C28.352233,8.58678758 28.3394059,8.58062196 28.3329924,8.58062196 C28.3137518,8.57445633 28.3009247,8.57445633 28.2816841,8.57445633 C28.2752706,8.57445633 28.268857,8.56829071 28.25603,8.56829071 L6.46283882,5.67661302 L6.46283882,2.7541072 C6.46283882,2.72327908 6.46283882,2.69245096 6.45642528,2.66778847 C6.45642528,2.66162284 6.45642528,2.65545722 6.45001175,2.64312597 C6.45001175,2.6246291 6.44359821,2.60613223 6.44359821,2.58763535 C6.43718468,2.56913848 6.43718468,2.55680723 6.43077114,2.53831036 C6.43077114,2.52597911 6.42435761,2.51981349 6.42435761,2.50748224 C6.41794408,2.48898537 6.41153054,2.4704885 6.40511701,2.45199163 C6.40511701,2.445826 6.39870347,2.43349475 6.39870347,2.42732913 C6.39228994,2.40883226 6.3858764,2.39650101 6.37304933,2.37800414 C6.3666358,2.37183851 6.3666358,2.35950726 6.36022226,2.35334164 C6.35380873,2.34101039 6.34739519,2.32867914 6.33456812,2.3163479 C6.32815459,2.30401665 6.32174105,2.29785102 6.31532752,2.28551977 C6.30891398,2.27318853 6.30250045,2.2670229 6.29608691,2.25469165 C6.28967338,2.24236041 6.27684631,2.23002916 6.27043278,2.21769791 C6.26401924,2.21153229 6.25760571,2.20536666 6.25119217,2.19920104 C6.2383651,2.18686979 6.22553803,2.17453854 6.21271096,2.16220729 C6.20629743,2.15604167 6.19988389,2.14987605 6.19347036,2.14371042 C6.18064329,2.13137917 6.16781622,2.11904792 6.14857561,2.10671668 C6.14216208,2.10055105 6.12933501,2.09438543 6.12292148,2.0882198 C6.11009441,2.07588856 6.09726734,2.06972293 6.08444027,2.05739168 C6.06519966,2.04506044 6.04595906,2.03272919 6.03313199,2.02656356 C6.02671845,2.02039794 6.02030492,2.02039794 6.01389138,2.01423232 C5.98823725,2.00190107 5.95616957,1.98956982 5.93051543,1.97723857 L1.20374031,0.0658951073 C0.761206408,-0.112907991 0.254537161,0.0843919796 0.0685446529,0.509820041 C-0.117447855,0.935248102 0.0877852572,1.4223324 0.530319156,1.6011355 L4.7247709,3.30284775 L4.7247709,7.07620968 L4.7247709,7.67427522 L4.7247709,12.2614995 L4.7247709,16.3616395 L4.7247709,21.5407638 C4.7247709,23.2671385 6.0716132,24.6975633 7.80968112,24.9133601 C7.49541792,25.4189413 7.30942541,26.0108412 7.30942541,26.6397349 C7.30942541,28.4955877 8.88074143,30 10.8048019,30 C12.7288623,30 14.3001783,28.4894221 14.3001783,26.6397349 C14.3001783,26.0231725 14.1270129,25.4374382 13.8191632,24.9441883 L21.6051944,24.9441883 C21.2973447,25.4436038 21.1241793,26.0231725 21.1241793,26.6397349 C21.1241793,28.4955877 22.6954953,30 24.6195558,30 C26.5436162,30 28.1149322,28.4894221 28.1149322,26.6397349 C28.1149322,24.7900477 26.5436162,23.2794698 24.6195558,23.2794698 L8.26504209,23.2794698 C7.26453066,23.2794698 6.45642528,22.4964355 6.45642528,21.5407638 L6.45642528,19.2841454 C6.98233513,19.5800953 7.60444801,19.7527328 8.26504209,19.7527328 Z M12.5749375,26.6335693 C12.5749375,27.5707441 11.7796591,28.3291159 10.8112154,28.3291159 C9.84277164,28.3291159 9.04749333,27.5645785 9.04749333,26.6335693 C9.04749333,25.70256 9.84277164,24.9380226 10.8112154,24.9380226 C11.7796591,24.9380226 12.5749375,25.6963944 12.5749375,26.6335693 Z M26.3896913,26.6335693 C26.3896913,27.5707441 25.594413,28.3291159 24.6259693,28.3291159 C23.6575255,28.3291159 22.8622472,27.5645785 22.8622472,26.6335693 C22.8622472,25.70256 23.6575255,24.9380226 24.6259693,24.9380226 C25.594413,24.9380226 26.3896913,25.6963944 26.3896913,26.6335693 Z M25.4597288,18.0880143 L8.26504209,18.0880143 C7.26453066,18.0880143 6.45642528,17.30498 6.45642528,16.3493083 L6.45642528,12.2491683 L6.45642528,7.66194397 L6.45642528,7.35366277 L27.2683456,10.1096967 L27.2683456,16.3431427 C27.2683456,17.3111457 26.4538267,18.0880143 25.4597288,18.0880143 Z"></path>
                    </g>
                </g>
            </g>
        </g>
    </g>
</svg>