<svg xmlns="http://www.w3.org/2000/svg" width="90" height="31" viewBox="0 0 84 31">
  <g transform="translate(-2)">
    <path d="M77.8826589,5.10377865 C72.1541979,-0.624682292 62.8328047,-0.625247396 57.1037786,5.10377865 C51.3747526,10.8328047 51.3753177,20.1536328 57.1037786,25.8826589 C62.8322396,31.6116849 72.1536328,31.6116849 77.8826589,25.8826589 C83.6111198,20.1536328 83.6111198,10.8322396 77.8826589,5.10377865 Z M73.2872318,21.2872318 C72.8458854,21.7285781 72.1304635,21.7285781 71.6891172,21.2872318 L67.4932187,17.0913333 L63.0978385,21.4867135 C62.6564922,21.9280599 61.9410703,21.9280599 61.499724,21.4867135 C61.0583776,21.0453672 61.0583776,20.3299453 61.499724,19.888599 L65.8951042,15.4932188 L61.6992057,11.2973203 C61.2578594,10.855974 61.2578594,10.139987 61.6992057,9.69920573 C62.1405521,9.25785938 62.855974,9.25785938 63.2973203,9.69920573 L67.4932187,13.8951042 L71.4890703,9.8992526 C71.9304167,9.45790625 72.6458385,9.45790625 73.0871849,9.8992526 C73.5285312,10.340599 73.5285312,11.0560208 73.0871849,11.4973672 L69.0913333,15.4932188 L73.2872318,19.6891172 C73.7285781,20.1304635 73.7285781,20.8458854 73.2872318,21.2872318 Z"/>
    <text font-family="Roboto, sans-serif" font-size="13.09" font-weight="400">
      <tspan x="0" y="22">S A I R </tspan>
    </text>
  </g>
</svg>
