<svg xmlns="http://www.w3.org/2000/svg" width="43" height="43" viewBox="0 0 43 43">
  <path d="M36.7096241,6.290508 C28.3206918,-2.096836 14.6779218,-2.096836 6.28898947,6.290508 C-2.09632982,14.677852 -2.09632982,28.3244377 6.28898947,36.7117817 C10.4834556,40.9045714 15.9918013,43 21.5002311,43 C27.0086608,43 32.515158,40.9044874 36.7096241,36.7117817 C45.096792,28.3245217 45.096792,14.677852 36.7096241,6.290508 Z M30.3712917,27.8386861 C31.0721339,28.539543 31.0721339,29.6724592 30.3712917,30.3733161 C30.0217529,30.7228623 29.5628991,30.8985597 29.1039613,30.8985597 C28.6451076,30.8985597 28.1861698,30.7228623 27.8366309,30.3733161 L21.500147,24.0348506 L15.1654276,30.3714676 C14.8141243,30.7210138 14.3551865,30.8967111 13.8980973,30.8967111 C13.4392435,30.8967111 12.9803057,30.7210138 12.6307669,30.3714676 C11.9299247,29.6706107 11.9299247,28.53593 12.6307669,27.8368376 L18.9654863,21.5002206 L12.6290024,15.1636036 C11.9281602,14.4627466 11.9281602,13.3280659 12.6290024,12.6289736 C13.3280801,11.9281167 14.4627369,11.9281167 15.1635791,12.6289736 L21.500063,18.9655906 L27.8365469,12.6289736 C28.5373891,11.9281167 29.6702815,11.9281167 30.3711237,12.6289736 C31.0719659,13.3280659 31.0719659,14.4627466 30.3711237,15.1636036 L24.0346398,21.5002206 L30.3712917,27.8386861 Z"/>
</svg>
