<?xml version="1.0" encoding="UTF-8"?>
<svg width="31px" height="31px" viewBox="0 0 31 31" version="1.1" xmlns="http://www.w3.org/2000/svg" xmlns:xlink="http://www.w3.org/1999/xlink">
    <!-- Generator: Sketch 48.2 (47327) - http://www.bohemiancoding.com/sketch -->
    <title>Fechar</title>
    <desc>Created with Sketch.</desc>
    <defs></defs>
    <g id="01-SEUS-DADOS-C" stroke="none" stroke-width="1" fill="none" fill-rule="evenodd" transform="translate(-1175.000000, -15.000000)">
        <g id="Fechar" transform="translate(1175.000000, 15.000000)" fill="#EF6D6D">
            <g id="Shape">
                <path d="M25.8826589,5.10377865 C20.1541979,-0.624682292 10.8328047,-0.625247396 5.10377865,5.10377865 C-0.625247396,10.8328047 -0.624682292,20.1536328 5.10377865,25.8826589 C10.8322396,31.6116849 20.1536328,31.6116849 25.8826589,25.8826589 C31.6111198,20.1536328 31.6111198,10.8322396 25.8826589,5.10377865 Z M21.2872318,21.2872318 C20.8458854,21.7285781 20.1304635,21.7285781 19.6891172,21.2872318 L15.4932187,17.0913333 L11.0978385,21.4867135 C10.6564922,21.9280599 9.94107031,21.9280599 9.49972396,21.4867135 C9.0583776,21.0453672 9.0583776,20.3299453 9.49972396,19.888599 L13.8951042,15.4932188 L9.69920573,11.2973203 C9.25785937,10.855974 9.25785937,10.139987 9.69920573,9.69920573 C10.1405521,9.25785938 10.855974,9.25785938 11.2973203,9.69920573 L15.4932187,13.8951042 L19.4890703,9.8992526 C19.9304167,9.45790625 20.6458385,9.45790625 21.0871849,9.8992526 C21.5285312,10.340599 21.5285312,11.0560208 21.0871849,11.4973672 L17.0913333,15.4932188 L21.2872318,19.6891172 C21.7285781,20.1304635 21.7285781,20.8458854 21.2872318,21.2872318 Z" fill-rule="nonzero"></path>
            </g>
        </g>
    </g>
</svg>