<svg xmlns="http://www.w3.org/2000/svg" width="43" height="43" viewBox="0 0 43 43">
  <defs>
    <linearGradient id="confirmacao_sucesso-a" x1="0%" y1="50%" y2="50%">
      <stop offset="0%" stop-color="#54D894"/>
      <stop offset="100%" stop-color="#5CC8B7"/>
    </linearGradient>
  </defs>
  <path d="M21.5,0 C9.57727273,0 0,9.57727273 0,21.5 C0,33.4227273 9.57727273,43 21.5,43 C33.4227273,43 43,33.4227273 43,21.5 C43,9.57727273 33.4227273,0 21.5,0 Z M33.9113636,14.7568182 L18.275,30.9795455 C18.0795455,31.175 17.8840909,31.2727273 17.5909091,31.2727273 C17.2977273,31.2727273 17.0045455,31.175 16.9068182,30.9795455 L9.28409091,22.7704545 L9.08863636,22.575 C8.89318182,22.3795455 8.79545455,22.0863636 8.79545455,21.8909091 C8.79545455,21.6954545 8.89318182,21.4022727 9.08863636,21.2068182 L10.4568182,19.8386364 C10.8477273,19.4477273 11.4340909,19.4477273 11.825,19.8386364 L11.9227273,19.9363636 L17.2977273,25.7022727 C17.4931818,25.8977273 17.7863636,25.8977273 17.9818182,25.7022727 L31.0772727,12.1181818 L31.175,12.1181818 C31.5659091,11.7272727 32.1522727,11.7272727 32.5431818,12.1181818 L33.9113636,13.4863636 C34.3022727,13.7795455 34.3022727,14.3659091 33.9113636,14.7568182 Z"/>
</svg>
