<?xml version="1.0" encoding="UTF-8"?>
<svg width="19px" height="19px" viewBox="0 0 19 19" version="1.1" xmlns="http://www.w3.org/2000/svg" xmlns:xlink="http://www.w3.org/1999/xlink">
    <!-- Generator: Sketch 48.2 (47327) - http://www.bohemiancoding.com/sketch -->
    <title>confirmacao</title>
    <desc>Created with Sketch.</desc>
    <defs></defs>
    <g id="Passos-1-de-4" stroke="none" stroke-width="1" transform="translate(-553.000000, 0.000000)">
        <g id="Confirmacao">
            <g transform="translate(553.000000, 0.000000)">
                <g id="confirmacao">
                    <path d="M9.5,0 C4.23181818,0 0,4.23181818 0,9.5 C0,14.7681818 4.23181818,19 9.5,19 C14.7681818,19 19,14.7681818 19,9.5 C19,4.23181818 14.7681818,0 9.5,0 Z M14.9840909,6.52045455 L8.075,13.6886364 C7.98863636,13.775 7.90227273,13.8181818 7.77272727,13.8181818 C7.64318182,13.8181818 7.51363636,13.775 7.47045455,13.6886364 L4.10227273,10.0613636 L4.01590909,9.975 C3.92954545,9.88863636 3.88636364,9.75909091 3.88636364,9.67272727 C3.88636364,9.58636364 3.92954545,9.45681818 4.01590909,9.37045455 L4.62045455,8.76590909 C4.79318182,8.59318182 5.05227273,8.59318182 5.225,8.76590909 L5.26818182,8.80909091 L7.64318182,11.3568182 C7.72954545,11.4431818 7.85909091,11.4431818 7.94545455,11.3568182 L13.7318182,5.35454545 L13.775,5.35454545 C13.9477273,5.18181818 14.2068182,5.18181818 14.3795455,5.35454545 L14.9840909,5.95909091 C15.1568182,6.08863636 15.1568182,6.34772727 14.9840909,6.52045455 Z" id="Shape"></path>
                </g>
            </g>
        </g>
    </g>
</svg>