<svg xmlns="http://www.w3.org/2000/svg" width="47" height="46" viewBox="0 0 47 46">
  <g fill="none">
    <path fill="#F5A623" d="M28.1990923 41.9975032C27.8121996 42.0924838 27.4177425 42.1768337 27.0262103 42.2478704 26.0026996 42.4353477 25.3260408 43.4050238 25.5153519 44.4141425 25.6088476 44.9106048 25.8950837 45.324108 26.283691 45.5940475 26.6841996 45.8717365 27.1939378 45.9971188 27.7133584 45.9019395 28.1796266 45.8166955 28.6495258 45.7164492 29.1106502 45.6030886 30.1213519 45.3553045 30.7370923 44.3466825 30.4849464 43.3515724 30.2334056 42.355568 29.2103991 41.7495205 28.1990923 41.9975032zM42.1474013 17.0932225C42.2795258 17.4854644 42.5317725 17.805676 42.8503841 18.026933 43.3228047 18.3546955 43.9409657 18.4649762 44.5308863 18.2728294 45.5199034 17.9493391 46.0557639 16.8987905 45.7285794 15.925041 45.5795107 15.4811361 45.414103 15.0358402 45.2379034 14.6022678 44.8510107 13.6494816 43.7538734 13.1856069 42.7861373 13.5667214 41.8194099 13.9476371 41.3483004 15.0286868 41.7354957 15.9817711 41.8835558 16.3461944 42.0222361 16.7202549 42.1474013 17.0932225zM34.3281545 39.3447041C33.9954227 39.5610929 33.652 39.770527 33.3060558 39.9667473 32.4034742 40.4796026 32.0943433 41.6160907 32.6147725 42.5047948 32.7560751 42.7465184 32.9442768 42.9441296 33.1610215 43.0951447 33.7428734 43.4984147 34.5330987 43.5588207 35.1909979 43.1854557 35.6022983 42.9517797 36.011279 42.7032009 36.4075515 42.4450842 37.2763455 41.8796717 37.5154807 40.7268898 36.9411931 39.8706739 36.3670064 39.0141598 35.1972511 38.7788942 34.3281545 39.3447041zM46.9013605 22.2825788C46.8603112 21.257067 45.9834485 20.4588726 44.9420858 20.4989114 43.9020343 20.5393477 43.091133 21.4034125 43.1319807 22.428527 43.1476137 22.8204708 43.1516481 23.2182765 43.14247 23.6098229 43.1278455 24.2529287 43.4471631 24.8261901 43.9433863 25.170743 44.2390021 25.3758056 44.5977554 25.4998963 44.9867661 25.5086393 46.0278262 25.5313909 46.8905687 24.7179957 46.9136652 23.691987 46.9240536 23.2241382 46.9201202 22.7501296 46.9013605 22.2825788zM41.8395815 34.4568812C41.0047768 33.839905 39.8237253 34.0074125 39.1985043 34.8282592 38.9590665 35.1426091 38.7069206 35.4530842 38.4487232 35.7520346 37.7739807 36.5329417 37.8692918 37.705892 38.6620386 38.371054 38.7072232 38.4088078 38.752912 38.4434816 38.8003155 38.4760691 39.5884227 39.0233996 40.6837446 38.8976199 41.3209678 38.1610238 41.6292918 37.8043499 41.9298498 37.4334687 42.215985 37.0580173 42.8413069 36.2371706 42.6720665 35.0729633 41.8395815 34.4568812zM44.6121781 27.7403844C43.6182189 27.4333866 42.5597103 27.978432 42.2482597 28.9575464 42.1290451 29.3316069 41.9969206 29.7074557 41.8543069 30.0755551 41.5411416 30.8858704 41.8411953 31.7774557 42.5290494 32.2552397 42.6552232 32.3425702 42.794206 32.4165875 42.945191 32.4728207 43.9183734 32.838635 45.0081481 32.3576717 45.3791052 31.3986263 45.5484464 30.9609806 45.7055837 30.513797 45.8476931 30.0690972 46.1588412 29.089784 45.6059356 28.0473823 44.6121781 27.7403844z"/>
    <path fill="#FFF" d="M19.9698562,42.2645616 C18.2835043,41.9663067 16.6658369,41.458419 15.131882,40.7500389 C15.1137275,40.7406998 15.0974893,40.7300691 15.078427,40.7215248 C14.7169506,40.5539179 14.3560794,40.3743888 14.0063026,40.1868121 C14.0050923,40.1854212 14.0028734,40.184527 14.0009571,40.1837322 C13.3591953,39.8356026 12.7328648,39.4504147 12.1243863,39.0284665 C3.25167382,32.8716199 1.1183176,20.7518618 7.36891416,12.0117624 C8.72808155,10.1119525 10.3728798,8.5269892 12.2065858,7.27078186 C12.2291781,7.25528294 12.2517704,7.23988337 12.2741609,7.2242851 C18.7358541,2.83848812 27.5098262,2.54291577 34.3711202,7.04972354 L32.8974785,9.14714471 C32.4877918,9.73093737 32.7398369,10.1563629 33.4570408,10.0927775 L39.8582189,9.52825918 C40.5763305,9.46467387 41.0057854,8.85276458 40.8126416,8.16961987 L39.0937124,2.06880778 C38.9012747,1.38486825 38.4085815,1.30300216 37.9984914,1.88669546 L36.5214206,3.98908423 C31.4861674,0.65949892 25.4468691,-0.61012095 19.4525536,0.413801296 C18.8488155,0.516730022 18.2535494,0.642708423 17.6664528,0.789352052 C17.6619142,0.790146868 17.6582833,0.790643629 17.6546524,0.791438445 C17.6319592,0.796902808 17.6089635,0.804155508 17.5868755,0.810215983 C12.4178841,2.11778834 7.90800215,5.08752052 4.68991416,9.32468683 C4.66278326,9.35638013 4.63484549,9.38737797 4.60922747,9.42185313 C4.50221674,9.56382721 4.39601288,9.70907991 4.2920279,9.85433261 C4.12198069,10.0923801 3.95435408,10.3363888 3.79398927,10.5803974 C3.77391845,10.6098056 3.75858798,10.6397106 3.74103863,10.6694168 C1.08543777,14.7230799 -0.195463519,19.4095162 0.0242060086,24.1806004 C0.0247103004,24.1962981 0.0238025751,24.212095 0.0242060086,24.2281901 C0.0454871245,24.6942505 0.0830064378,25.1667689 0.133939914,25.6319352 C0.13666309,25.6619395 0.143420601,25.6903542 0.148564378,25.7203585 C0.201212446,26.188108 0.267274678,26.6569503 0.350079399,27.1256933 C1.19164163,31.9083024 3.48193348,36.2119352 6.9138412,39.5605961 C6.92180901,39.5684449 6.9300794,39.5769892 6.93814807,39.5851361 C6.9409721,39.588216 6.94409871,39.5898056 6.94682189,39.5926868 C7.8688691,40.4885443 8.87180472,41.3171404 9.95169528,42.0663542 C12.7777468,44.0279611 15.9246288,45.3246048 19.304191,45.9220086 C20.329618,46.1035248 21.3091545,45.4311102 21.4931202,44.4214946 C21.676985,43.4111836 20.9949807,42.4454816 19.9698562,42.2645616 Z"/>
    <path fill="#FFF" d="M22.302206,8.16653996 C21.4587275,8.16653996 20.7755129,8.84014687 20.7755129,9.66983585 L20.7755129,24.6468596 L34.6808562,31.7277797 C34.9046609,31.8419352 35.1443004,31.8956847 35.3801073,31.8956847 C35.9324077,31.8956847 36.4658476,31.5994168 36.7370558,31.0824881 C37.1238476,30.3446998 36.8311567,29.438311 36.0821824,29.0572959 L23.8271845,22.8161987 L23.8271845,9.66983585 C23.8270837,8.84014687 23.144676,8.16653996 22.302206,8.16653996 Z"/>
  </g>
</svg>
