<svg xmlns="http://www.w3.org/2000/svg" width="48" height="41" viewBox="0 0 48 41">
  <defs>
    <linearGradient id="pgto-cartao-e-boleto-a" x1="366.071%" x2="0%" y1="-146.973%" y2="100%">
      <stop offset="0%" stop-color="#71D9A3"/>
      <stop offset="100%" stop-color="#3BB3A0"/>
    </linearGradient>
    <linearGradient id="pgto-cartao-e-boleto-b" x1="889.376%" x2="0%" y1="17.381%" y2="100%">
      <stop offset="0%" stop-color="#71D9A3"/>
      <stop offset="100%" stop-color="#3BB3A0"/>
    </linearGradient>
  </defs>
  <g fill="none" fill-rule="evenodd">
    <g fill-rule="nonzero">
      <path fill="#FFF" d="M34.3995167,0 L2.60048333,0 C1.16673333,0 0,1.161 0,2.58770455 L0,24.4122955 C0,25.839 1.16673333,27 2.60048333,27 L34.3995167,27 C35.8332667,27 37,25.839 37,24.4122955 L37,2.58770455 C37,1.161 35.8332667,0 34.3995167,0 Z M35.7666667,24.4122955 C35.7666667,25.1621591 35.1537,25.7727273 34.3995167,25.7727273 L2.60048333,25.7727273 C1.8463,25.7727273 1.23333333,25.1621591 1.23333333,24.4122955 L1.23333333,2.58770455 C1.23333333,1.83784091 1.8463,1.22727273 2.60048333,1.22727273 L34.3995167,1.22727273 C35.1537,1.22727273 35.7666667,1.83784091 35.7666667,2.58770455 L35.7666667,24.4122955 Z"/>
      <path fill="url(#pgto-cartao-e-boleto-a)" d="M9.86666667 17.7954545L4.31666667 17.7954545C3.97565 17.7954545 3.7 18.0703636 3.7 18.4090909 3.7 18.7478182 3.97565 19.0227273 4.31666667 19.0227273L9.86666667 19.0227273C10.2076833 19.0227273 10.4833333 18.7478182 10.4833333 18.4090909 10.4833333 18.0703636 10.2076833 17.7954545 9.86666667 17.7954545zM17.8833333 17.7954545L12.3333333 17.7954545C11.9923167 17.7954545 11.7166667 18.0703636 11.7166667 18.4090909 11.7166667 18.7478182 11.9923167 19.0227273 12.3333333 19.0227273L17.8833333 19.0227273C18.22435 19.0227273 18.5 18.7478182 18.5 18.4090909 18.5 18.0703636 18.22435 17.7954545 17.8833333 17.7954545zM4.93333333 20.8636364L4.31666667 20.8636364C3.97565 20.8636364 3.7 21.1385455 3.7 21.4772727 3.7 21.816 3.97565 22.0909091 4.31666667 22.0909091L4.93333333 22.0909091C5.27435 22.0909091 5.55 21.816 5.55 21.4772727 5.55 21.1385455 5.27435 20.8636364 4.93333333 20.8636364zM8.63333333 20.8636364L7.4 20.8636364C7.05898333 20.8636364 6.78333333 21.1385455 6.78333333 21.4772727 6.78333333 21.816 7.05898333 22.0909091 7.4 22.0909091L8.63333333 22.0909091C8.97435 22.0909091 9.25 21.816 9.25 21.4772727 9.25 21.1385455 8.97435 20.8636364 8.63333333 20.8636364zM11.7166667 20.8636364L11.1 20.8636364C10.7589833 20.8636364 10.4833333 21.1385455 10.4833333 21.4772727 10.4833333 21.816 10.7589833 22.0909091 11.1 22.0909091L11.7166667 22.0909091C12.0576833 22.0909091 12.3333333 21.816 12.3333333 21.4772727 12.3333333 21.1385455 12.0576833 20.8636364 11.7166667 20.8636364zM15.4166667 20.8636364L14.1833333 20.8636364C13.8423167 20.8636364 13.5666667 21.1385455 13.5666667 21.4772727 13.5666667 21.816 13.8423167 22.0909091 14.1833333 22.0909091L15.4166667 22.0909091C15.7576833 22.0909091 16.0333333 21.816 16.0333333 21.4772727 16.0333333 21.1385455 15.7576833 20.8636364 15.4166667 20.8636364zM17.4455 21.0415909C17.3338833 21.1581818 17.2666667 21.3177273 17.2666667 21.4772727 17.2666667 21.6368182 17.3338833 21.7963636 17.4455 21.9129545 17.56205 22.0234091 17.723 22.0909091 17.8833333 22.0909091 18.0436667 22.0909091 18.204 22.0234091 18.3211667 21.9129545 18.4321667 21.7963636 18.5 21.6368182 18.5 21.4772727 18.5 21.3177273 18.4321667 21.1581818 18.3211667 21.0415909 18.0868333 20.8145455 17.6668833 20.8145455 17.4455 21.0415909zM29.6 15.3409091C28.8131333 15.3409091 28.07745 15.5550682 27.4416667 15.9220227 26.8058833 15.5550682 26.0702 15.3409091 25.2833333 15.3409091 22.9036167 15.3409091 20.9666667 17.2677273 20.9666667 19.6363636 20.9666667 22.005 22.9036167 23.9318182 25.2833333 23.9318182 26.0702 23.9318182 26.8058833 23.7176591 27.4416667 23.3507045 28.07745 23.7176591 28.8131333 23.9318182 29.6 23.9318182 31.9797167 23.9318182 33.9166667 22.005 33.9166667 19.6363636 33.9166667 17.2677273 31.9797167 15.3409091 29.6 15.3409091zM28.3666667 19.6363636C28.3666667 20.4917727 28.0114667 21.2649545 27.4416667 21.8221364 26.8718667 21.2649545 26.5166667 20.4917727 26.5166667 19.6363636 26.5166667 18.7809545 26.8718667 18.0077727 27.4416667 17.4505909 28.0114667 18.0077727 28.3666667 18.7809545 28.3666667 19.6363636zM22.2 19.6363636C22.2 17.9445682 23.5831833 16.5681818 25.2833333 16.5681818 25.67245 16.5681818 26.0418333 16.6479545 26.3853167 16.7798864 25.7026667 17.5395682 25.2833333 18.5391818 25.2833333 19.6363636 25.2833333 20.7335455 25.7026667 21.7331591 26.3853167 22.4928409 26.0418333 22.6247727 25.67245 22.7045455 25.2833333 22.7045455 23.5831833 22.7045455 22.2 21.3281591 22.2 19.6363636zM29.6 22.7045455C29.2108833 22.7045455 28.8415 22.6247727 28.4980167 22.4928409 29.1806667 21.7331591 29.6 20.7335455 29.6 19.6363636 29.6 18.5391818 29.1806667 17.5395682 28.4980167 16.7798864 28.8415 16.6479545 29.2108833 16.5681818 29.6 16.5681818 31.30015 16.5681818 32.6833333 17.9445682 32.6833333 19.6363636 32.6833333 21.3281591 31.30015 22.7045455 29.6 22.7045455zM5.09058333 13.5L8.79058333 13.5 9.70941667 13.5 13.4094167 13.5C14.1759333 13.5 14.8 12.879 14.8 12.11625L14.8 7.20715909 14.8 6.29284091C14.8 5.53009091 14.1759333 4.90909091 13.4094167 4.90909091L8.79058333 4.90909091 5.09058333 4.90909091C4.32406667 4.90909091 3.7 5.53009091 3.7 6.29284091L3.7 12.11625C3.7 12.879 4.32406667 13.5 5.09058333 13.5zM7.4 9.81818182L4.93333333 9.81818182 4.93333333 8.59090909 7.4 8.59090909 7.4 9.81818182zM4.93333333 12.11625L4.93333333 11.0454545 7.4 11.0454545 7.4 12.11625C7.4 12.1696364 7.40986667 12.2205682 7.41603333 12.2727273L5.09058333 12.2727273C5.00363333 12.2727273 4.93333333 12.2027727 4.93333333 12.11625zM13.5666667 9.81818182L11.1 9.81818182 11.1 8.74738636C11.1 8.66086364 11.1703 8.59090909 11.25725 8.59090909L13.4094167 8.59090909C13.4630667 8.59090909 13.51425 8.58109091 13.5666667 8.57495455L13.5666667 9.81818182zM13.4094167 12.2727273L11.0839667 12.2727273C11.0901333 12.2205682 11.1 12.1696364 11.1 12.11625L11.1 11.0454545 13.5666667 11.0454545 13.5666667 12.11625C13.5666667 12.2027727 13.4963667 12.2727273 13.4094167 12.2727273zM13.4094167 6.13636364C13.4963667 6.13636364 13.5666667 6.20631818 13.5666667 6.29284091L13.5666667 7.20715909C13.5666667 7.29368182 13.4963667 7.36363636 13.4094167 7.36363636L11.25725 7.36363636C10.4907333 7.36363636 9.86666667 7.98463636 9.86666667 8.74738636L9.86666667 12.11625C9.86666667 12.2027727 9.79636667 12.2727273 9.70941667 12.2727273L8.79058333 12.2727273C8.70363333 12.2727273 8.63333333 12.2027727 8.63333333 12.11625L8.63333333 6.29284091C8.63333333 6.20631818 8.70363333 6.13636364 8.79058333 6.13636364L13.4094167 6.13636364zM5.09058333 6.13636364L7.41603333 6.13636364C7.40986667 6.18852273 7.4 6.23945455 7.4 6.29284091L7.4 7.36363636 4.93333333 7.36363636 4.93333333 6.29284091C4.93333333 6.20631818 5.00363333 6.13636364 5.09058333 6.13636364z"/>
    </g>
    <g transform="translate(11 15)">
      <path fill="#000" d="M2.57509517,0.742283627 L27.9074099,0.742283627 L36.1666221,9.63102246 L36.1666221,22.3991054 C35.7733639,24.2036013 34.4964568,25.1058492 32.3359011,25.1058492 C30.1753453,25.1058492 20.4740586,25.1058492 3.23204091,25.1058492 C1.38938302,24.630927 0.468054075,23.2816882 0.468054075,21.058133 C0.468054075,18.8345779 0.468054075,12.9201103 0.468054075,3.3147302 L2.57509517,0.742283627 Z"/>
      <path fill="#FFF" fill-rule="nonzero" d="M3.46875,26 L33.53125,26 C35.4390625,26 37,24.3364929 37,22.3033175 L37,9.36492891 L28.2125,0 L3.46875,0 C1.5609375,0 0,1.66350711 0,3.69668246 L0,22.2417062 C0,24.3364929 1.5609375,26 3.46875,26 Z M28.559375,2.1563981 L35.034375,9.05687204 L30.871875,9.05687204 C29.6,9.05687204 28.559375,7.9478673 28.559375,6.59241706 L28.559375,2.1563981 Z M1.15625,3.69668246 C1.15625,2.34123223 2.196875,1.23222749 3.46875,1.23222749 L27.403125,1.23222749 L27.403125,6.53080569 C27.403125,8.56398104 28.9640625,10.2274882 30.871875,10.2274882 L35.84375,10.2274882 L35.84375,22.2417062 C35.84375,23.5971564 34.803125,24.7061611 33.53125,24.7061611 L3.46875,24.7061611 C2.196875,24.7061611 1.15625,23.5971564 1.15625,22.2417062 L1.15625,3.69668246 Z"/>
      <g fill-rule="nonzero" transform="translate(2.707 4.483)">
        <rect width="2.891" height="5.2" x="3.652" y="12.851" fill="url(#pgto-cartao-e-boleto-b)"/>
        <rect width="1.734" height="5.2" x="7.699" y="12.851" fill="url(#pgto-cartao-e-boleto-b)"/>
        <rect width="1.734" height="5.2" x="22.152" y="12.851" fill="url(#pgto-cartao-e-boleto-b)"/>
        <rect width="2.313" height="5.2" x="10.59" y="12.851" fill="url(#pgto-cartao-e-boleto-b)"/>
        <rect width="2.313" height="5.2" x="25.621" y="12.851" fill="url(#pgto-cartao-e-boleto-b)"/>
        <rect width="1.734" height="5.2" x="13.48" y="12.851" fill="url(#pgto-cartao-e-boleto-b)"/>
        <rect width="2.313" height="5.2" x="15.793" y="12.851" fill="url(#pgto-cartao-e-boleto-b)"/>
        <rect width="1.156" height="5.2" x=".761" y="12.851" fill="url(#pgto-cartao-e-boleto-b)"/>
        <rect width="1.156" height="5.2" x="19.261" y="12.851" fill="url(#pgto-cartao-e-boleto-b)"/>
        <rect width="1.156" height="5.2" x="29.668" y="12.851" fill="url(#pgto-cartao-e-boleto-b)"/>
        <path fill="url(#pgto-cartao-e-boleto-a)" d="M20.3837561.139463602L1.37348472.139463602C1.03502008.139463602.761432927.398308046.761432927.717241379.761432927 1.03617471 1.03502008 1.29501916 1.37348472 1.29501916L20.3837561 1.29501916C20.7222208 1.29501916 20.9958079 1.03617471 20.9958079.717241379 20.9958079.398308046 20.7222208.139463602 20.3837561.139463602zM16.3515851 3.60613027L1.35878074 3.60613027C1.0284474 3.60613027.761432927 3.86497471.761432927 4.18390805.761432927 4.50284138 1.0284474 4.76168582 1.35878074 4.76168582L16.3515851 4.76168582C16.6819185 4.76168582 16.9489329 4.50284138 16.9489329 4.18390805 16.9489329 3.86497471 16.6819185 3.60613027 16.3515851 3.60613027zM1.91768293 7.07279693L1.33955793 7.07279693C1.0198548 7.07279693.761432927 7.33164138.761432927 7.65057471.761432927 7.96950805 1.0198548 8.22835249 1.33955793 8.22835249L1.91768293 8.22835249C2.23738605 8.22835249 2.49580793 7.96950805 2.49580793 7.65057471 2.49580793 7.33164138 2.23738605 7.07279693 1.91768293 7.07279693zM5.38643293 7.07279693L4.23018293 7.07279693C3.9104798 7.07279693 3.65205793 7.33164138 3.65205793 7.65057471 3.65205793 7.96950805 3.9104798 8.22835249 4.23018293 8.22835249L5.38643293 8.22835249C5.70613605 8.22835249 5.96455793 7.96950805 5.96455793 7.65057471 5.96455793 7.33164138 5.70613605 7.07279693 5.38643293 7.07279693zM8.85518293 7.07279693L8.27705793 7.07279693C7.9573548 7.07279693 7.69893293 7.33164138 7.69893293 7.65057471 7.69893293 7.96950805 7.9573548 8.22835249 8.27705793 8.22835249L8.85518293 8.22835249C9.17488605 8.22835249 9.43330793 7.96950805 9.43330793 7.65057471 9.43330793 7.33164138 9.17488605 7.07279693 8.85518293 7.07279693zM12.3239329 7.07279693L11.1676829 7.07279693C10.8479798 7.07279693 10.5895579 7.33164138 10.5895579 7.65057471 10.5895579 7.96950805 10.8479798 8.22835249 11.1676829 8.22835249L12.3239329 8.22835249C12.6436361 8.22835249 12.9020579 7.96950805 12.9020579 7.65057471 12.9020579 7.33164138 12.6436361 7.07279693 12.3239329 7.07279693zM14.2259642 7.23413865C14.1213236 7.34460686 14.0583079 7.49577387 14.0583079 7.64694089 14.0583079 7.79810791 14.1213236 7.94927492 14.2259642 8.05974313 14.3352298 8.16439721 14.4861204 8.22835249 14.6364329 8.22835249 14.7867454 8.22835249 14.9370579 8.16439721 15.0469017 8.05974313 15.1509642 7.94927492 15.2145579 7.79810791 15.2145579 7.64694089 15.2145579 7.49577387 15.1509642 7.34460686 15.0469017 7.23413865 14.8272142 7.01901636 14.4335111 7.01901636 14.2259642 7.23413865z"/>
      </g>
    </g>
  </g>
</svg>
