<?xml version="1.0" encoding="UTF-8"?>
<svg width="18px" height="23px" viewBox="0 0 18 23" version="1.1" xmlns="http://www.w3.org/2000/svg" xmlns:xlink="http://www.w3.org/1999/xlink">
    <!-- Generator: Sketch 48.2 (47327) - http://www.bohemiancoding.com/sketch -->
    <title>Escudo</title>
    <desc>Created with Sketch.</desc>
    <defs>
        <linearGradient x1="100%" y1="50%" x2="0%" y2="50%" id="linearGradient-1">
            <stop stop-color="#71D9A3" offset="0%"></stop>
            <stop stop-color="#3BB3A0" offset="100%"></stop>
        </linearGradient>
    </defs>
    <g id="Rodape" stroke="none" stroke-width="1" fill="none" fill-rule="evenodd" transform="translate(-8.000000, 0.000000)">
        <g transform="translate(8.000000, 0.000000)" fill-rule="nonzero" id="ambiente-seguro">
            <g>
                <g id="Escudo">
                    <polygon id="Shape" fill="#FFFFFF" points="7.99823012 14.0794729 5.41688362 12.0434762 4.66666667 12.9676921 8.08705581 15.6651953 14.2834676 9.28461251 13.4348222 8.44796642"></polygon>
                    <path d="M0.014587013,12.95301 L0.014587013,5.62472144 L0.014587013,3.21834068 L8.99121039,0 L17.9678338,3.21834068 L17.9678338,14.0592224 C17.9678338,18.960481 9.65099221,22.6876794 9.29716364,22.8477114 L8.99121039,22.9826693 L8.68525714,22.8447615 C8.33142857,22.6876794 0.014587013,18.960481 0.014587013,14.0592224 L0.014587013,12.95301 Z M1.51069091,12.95301 L1.51069091,14.0592224 C1.51069091,17.1942285 6.64681558,20.2591743 8.99121039,21.3602244 C11.3356052,20.2576994 16.4717299,17.1927535 16.4717299,14.0592224 L16.4717299,4.25080561 L8.99121039,1.56934669 L1.51069091,4.25080561 L1.51069091,5.62472144 L1.51069091,12.95301 Z" id="Combined-Shape" fill="url(#linearGradient-1)"></path>
                </g>
            </g>
        </g>
    </g>
</svg>