<?xml version="1.0" encoding="UTF-8"?>
<svg width="13px" height="19px" viewBox="0 0 13 19" version="1.1" xmlns="http://www.w3.org/2000/svg" xmlns:xlink="http://www.w3.org/1999/xlink">
    <!-- Generator: Sketch 48.2 (47327) - http://www.bohemiancoding.com/sketch -->
    <title>map</title>
    <desc>Created with Sketch.</desc>
    <defs></defs>
    <g id="Passos-1-de-4" stroke="none" stroke-width="1" transform="translate(-221.000000, 0.000000)">
        <g id="Endereço">
            <g transform="translate(221.000000, 0.000000)">
                <g id="map">
                    <path d="M12.6928819,4.72891775 C12.6257108,4.47544482 12.4893066,4.20536231 12.3883963,3.96889655 C11.1808959,1.04711088 8.54253248,0 6.41218617,0 C3.56033182,0 0.419347762,1.92538705 0,5.89406272 L0,6.70488453 C0,6.73872215 0.0115827379,7.04268646 0.0280354907,7.19473487 C0.263112422,9.0861076 1.74539576,11.0962212 2.85242471,12.987594 C4.04342852,15.0140079 5.27927156,17.0074236 6.50366348,19 C7.2586474,17.6996812 8.01091113,16.382267 8.74869644,15.1156092 C8.94977101,14.7438813 9.18318073,14.3723742 9.38447468,14.0175652 C9.51864139,13.7813203 9.77495334,13.5450754 9.89205307,13.3252634 C11.083013,11.129838 13,8.9174496 13,6.73867798 L13,5.84361551 C13.0000439,5.6074148 12.709247,4.77985088 12.6928819,4.72891775 Z M6.46439624,8.7992388 C5.62609558,8.7992388 4.70851459,8.37719623 4.25560322,7.21165368 C4.18812499,7.02612104 4.19356537,6.6543048 4.19356537,6.62024631 L4.19356537,6.09669087 C4.19356537,4.61083948 5.44660702,3.93514728 6.53670061,3.93514728 C7.87871874,3.93514728 8.91664614,5.01618412 8.91664614,6.36739182 C8.91664614,7.71855536 7.80641438,8.7992388 6.46439624,8.7992388 Z" id="Facebook_Places"></path>
                </g>
            </g>
        </g>
    </g>
</svg>