<?xml version="1.0" encoding="UTF-8"?>
<svg width="8px" height="15px" viewBox="0 0 8 15" version="1.1" xmlns="http://www.w3.org/2000/svg" xmlns:xlink="http://www.w3.org/1999/xlink">
    <title>Shape</title>
    <desc>Created with Sketch.</desc>
    <defs></defs>
    <g id="Btn-voltar" stroke="none" stroke-width="1" transform="translate(-16.000000, -11.000000)">
        <g id="Btn-proximo">
            <g>
                <g id="right-arrow" transform="translate(19.979798, 18.500000) scale(-1, 1) translate(-19.979798, -18.500000) translate(15.979798, 11.000000)">
                    <path d="M0.276755999,14.1167213 C0.461259999,14.3055738 0.691889998,14.4 0.945582998,14.4 C1.176213,14.4 1.429906,14.3055738 1.61441,14.1167213 L7.70304198,7.88459016 C7.88754598,7.6957377 7.97979798,7.45967213 7.97979798,7.2 C7.97979798,6.94032787 7.88754598,6.7042623 7.70304198,6.51540984 L1.61441,0.283278689 C1.245402,-0.0944262295 0.645763998,-0.0944262295 0.276755999,0.283278689 C-0.0922519998,0.660983607 -0.0922519998,1.2747541 0.276755999,1.65245902 L5.69656099,7.2 L0.276755999,12.747541 C-0.0922519998,13.1252459 -0.0922519998,13.7390164 0.276755999,14.1167213 Z" id="Shape"></path>
                </g>
            </g>
        </g>
    </g>
</svg>
