<svg xmlns="http://www.w3.org/2000/svg" width="14" height="19" viewBox="0 0 14 19">
  <g>
    <path d="M13.9975573,3.84560742 C13.9963177,3.73145898 13.9529323,3.61961133 13.8705,3.53566992 L10.524901,0.130291016 C10.5247552,0.130142578 10.5246458,0.130105469 10.5245,0.129994141 C10.4454948,0.0496523438 10.3363385,0 10.2158437,0 L0.92159375,0 C0.414203125,0 0.00145833333,0.420078125 0.00145833333,0.936529297 L0.00145833333,18.0634336 C0.00145833333,18.5798477 0.414166667,18.9999629 0.921557292,18.9999629 L13.0783698,18.9999629 C13.585724,18.9999629 13.9984687,18.5798848 13.9984687,18.0634336 L13.9984687,3.85020898 C13.9985417,3.84857617 13.9977031,3.84720312 13.9975573,3.84560742 Z M10.6529062,1.51892383 L12.5062292,3.4053418 L10.6989167,3.4053418 C10.6735781,3.4053418 10.6529062,3.38430078 10.6529062,3.35850977 L10.6529062,1.51892383 Z M13.1243802,18.0634707 C13.1243802,18.0892617 13.1037448,18.1102656 13.0784062,18.1102656 L0.92159375,18.1102656 C0.896255208,18.1102656 0.875619792,18.0892617 0.875619792,18.0634707 L0.875619792,0.936529297 C0.875619792,0.910738281 0.896255208,0.889734375 0.92159375,0.889734375 L9.77878125,0.889734375 L9.77878125,3.35850977 C9.77878125,3.87492383 10.1915625,4.29511328 10.6989531,4.29511328 L13.1244167,4.29511328 L13.1244167,18.0634707 L13.1243802,18.0634707 Z"/>
    <path d="M10.8677917 6.08645703L3.13220833 6.08645703C2.89085417 6.08645703 2.69514583 6.28562305 2.69514583 6.53132422 2.69514583 6.77698828 2.89085417 6.97619141 3.13220833 6.97619141L10.8677552 6.97619141C11.1091094 6.97619141 11.3048177 6.77698828 11.3048177 6.53132422 11.3048542 6.28562305 11.1091094 6.08645703 10.8677917 6.08645703zM10.8677917 8.77091211L3.13220833 8.77091211C2.89085417 8.77091211 2.69514583 8.97011523 2.69514583 9.2157793 2.69514583 9.46144336 2.89085417 9.66064648 3.13220833 9.66064648L10.8677552 9.66064648C11.1091094 9.66064648 11.3048177 9.46144336 11.3048177 9.2157793 11.3048542 8.97011523 11.1091094 8.77091211 10.8677917 8.77091211zM10.8677917 11.4553301L3.13220833 11.4553301C2.89085417 11.4553301 2.69514583 11.6545332 2.69514583 11.9001973 2.69514583 12.1458984 2.89085417 12.3450645 3.13220833 12.3450645L10.8677552 12.3450645C11.1091094 12.3450645 11.3048177 12.1458984 11.3048177 11.9001973 11.3048542 11.6545703 11.1091094 11.4553301 10.8677917 11.4553301zM7 14.1398223L3.13220833 14.1398223C2.89085417 14.1398223 2.69514583 14.3390254 2.69514583 14.5846895 2.69514583 14.8303906 2.89085417 15.0295566 3.13220833 15.0295566L7 15.0295566C7.24135417 15.0295566 7.4370625 14.8303906 7.4370625 14.5846895 7.4370625 14.3389883 7.24135417 14.1398223 7 14.1398223z"/>
  </g>
</svg>
