<svg xmlns="http://www.w3.org/2000/svg" width="51" height="39" viewBox="0 0 51 39">
  <defs>
    <linearGradient id="pgto-2cartoes-a" x1="366.071%" x2="0%" y1="-146.973%" y2="100%">
      <stop offset="0%" stop-color="#71D9A3"/>
      <stop offset="100%" stop-color="#3BB3A0"/>
    </linearGradient>
  </defs>
  <g fill="none" fill-rule="evenodd">
    <g fill-rule="nonzero">
      <path fill="#FFF" d="M41.9247024,0 L3.1693611,0 C1.42196614,0 0,1.419 0,3.16275 L0,29.83725 C0,31.581 1.42196614,33 3.1693611,33 L41.9247024,33 C43.6720974,33 45.0940635,31.581 45.0940635,29.83725 L45.0940635,3.16275 C45.0940635,1.419 43.6720974,0 41.9247024,0 Z M43.5909281,29.83725 C43.5909281,30.75375 42.8438698,31.5 41.9247024,31.5 L3.1693611,31.5 C2.25019377,31.5 1.50313545,30.75375 1.50313545,29.83725 L1.50313545,3.16275 C1.50313545,2.24625 2.25019377,1.5 3.1693611,1.5 L41.9247024,1.5 C42.8438698,1.5 43.5909281,2.24625 43.5909281,3.16275 L43.5909281,29.83725 Z"/>
      <path fill="url(#pgto-2cartoes-a)" d="M21.795464 21.75L15.0313545 21.75C14.6157376 21.75 14.2797868 22.086 14.2797868 22.5 14.2797868 22.914 14.6157376 23.25 15.0313545 23.25L21.795464 23.25C22.211081 23.25 22.5470318 22.914 22.5470318 22.5 22.5470318 22.086 22.211081 21.75 21.795464 21.75zM10.5219482 25.5L9.01881271 25.5C8.60319576 25.5 8.26724498 25.836 8.26724498 26.25 8.26724498 26.664 8.60319576 27 9.01881271 27L10.5219482 27C10.9375651 27 11.2735159 26.664 11.2735159 26.25 11.2735159 25.836 10.9375651 25.5 10.5219482 25.5zM14.2797868 25.5L13.5282191 25.5C13.1126021 25.5 12.7766513 25.836 12.7766513 26.25 12.7766513 26.664 13.1126021 27 13.5282191 27L14.2797868 27C14.6954037 27 15.0313545 26.664 15.0313545 26.25 15.0313545 25.836 14.6954037 25.5 14.2797868 25.5zM18.7891931 25.5L17.2860577 25.5C16.8704407 25.5 16.53449 25.836 16.53449 26.25 16.53449 26.664 16.8704407 27 17.2860577 27L18.7891931 27C19.2048101 27 19.5407609 26.664 19.5407609 26.25 19.5407609 25.836 19.2048101 25.5 18.7891931 25.5zM21.261851 25.7175C21.1258172 25.86 21.0438963 26.055 21.0438963 26.25 21.0438963 26.445 21.1258172 26.64 21.261851 26.7825 21.4038973 26.9175 21.6000564 27 21.795464 27 21.9908717 27 22.1862793 26.9175 22.3290771 26.7825 22.4643593 26.64 22.5470318 26.445 22.5470318 26.25 22.5470318 26.055 22.4643593 25.86 22.3290771 25.7175 22.0434814 25.44 21.5316638 25.44 21.261851 25.7175zM36.0752508 18.75C35.1162504 18.75 34.2196301 19.01175 33.4447638 19.46025 32.6698975 19.01175 31.7732772 18.75 30.8142768 18.75 27.9139769 18.75 25.5533027 21.105 25.5533027 24 25.5533027 26.895 27.9139769 29.25 30.8142768 29.25 31.7732772 29.25 32.6698975 28.98825 33.4447638 28.53975 34.2196301 28.98825 35.1162504 29.25 36.0752508 29.25 38.9755507 29.25 41.3362249 26.895 41.3362249 24 41.3362249 21.105 38.9755507 18.75 36.0752508 18.75zM34.5721154 24C34.5721154 25.0455 34.1392124 25.9905 33.4447638 26.6715 32.7503152 25.9905 32.3174122 25.0455 32.3174122 24 32.3174122 22.9545 32.7503152 22.0095 33.4447638 21.3285 34.1392124 22.0095 34.5721154 22.9545 34.5721154 24zM27.0564381 24C27.0564381 21.93225 28.7422045 20.25 30.8142768 20.25 31.288516 20.25 31.7387051 20.3475 32.1573283 20.50875 31.3253428 21.43725 30.8142768 22.659 30.8142768 24 30.8142768 25.341 31.3253428 26.56275 32.1573283 27.49125 31.7387051 27.6525 31.288516 27.75 30.8142768 27.75 28.7422045 27.75 27.0564381 26.06775 27.0564381 24zM36.0752508 27.75C35.6010116 27.75 35.1508225 27.6525 34.7321993 27.49125 35.5641848 26.56275 36.0752508 25.341 36.0752508 24 36.0752508 22.659 35.5641848 21.43725 34.7321993 20.50875 35.1508225 20.3475 35.6010116 20.25 36.0752508 20.25 38.1473231 20.25 39.8330895 21.93225 39.8330895 24 39.8330895 26.06775 38.1473231 27.75 36.0752508 27.75z"/>
    </g>
    <g transform="translate(5.906 6)">
      <rect width="43.09" height="31" x="1.002" y="1" fill="#000" rx="1.98"/>
      <path fill="#FFF" fill-rule="nonzero" d="M41.9247024,0 L3.1693611,0 C1.42196614,0 0,1.419 0,3.16275 L0,29.83725 C0,31.581 1.42196614,33 3.1693611,33 L41.9247024,33 C43.6720974,33 45.0940635,31.581 45.0940635,29.83725 L45.0940635,3.16275 C45.0940635,1.419 43.6720974,0 41.9247024,0 Z M43.5909281,29.83725 C43.5909281,30.75375 42.8438698,31.5 41.9247024,31.5 L3.1693611,31.5 C2.25019377,31.5 1.50313545,30.75375 1.50313545,29.83725 L1.50313545,3.16275 C1.50313545,2.24625 2.25019377,1.5 3.1693611,1.5 L41.9247024,1.5 C42.8438698,1.5 43.5909281,2.24625 43.5909281,3.16275 L43.5909281,29.83725 Z"/>
      <path fill="url(#pgto-2cartoes-a)" fill-rule="nonzero" d="M12.0250836 21.75L5.26097408 21.75C4.84535713 21.75 4.50940635 22.086 4.50940635 22.5 4.50940635 22.914 4.84535713 23.25 5.26097408 23.25L12.0250836 23.25C12.4407006 23.25 12.7766513 22.914 12.7766513 22.5 12.7766513 22.086 12.4407006 21.75 12.0250836 21.75zM21.795464 21.75L15.0313545 21.75C14.6157376 21.75 14.2797868 22.086 14.2797868 22.5 14.2797868 22.914 14.6157376 23.25 15.0313545 23.25L21.795464 23.25C22.211081 23.25 22.5470318 22.914 22.5470318 22.5 22.5470318 22.086 22.211081 21.75 21.795464 21.75zM6.01254181 25.5L5.26097408 25.5C4.84535713 25.5 4.50940635 25.836 4.50940635 26.25 4.50940635 26.664 4.84535713 27 5.26097408 27L6.01254181 27C6.42815876 27 6.76410953 26.664 6.76410953 26.25 6.76410953 25.836 6.42815876 25.5 6.01254181 25.5zM10.5219482 25.5L9.01881271 25.5C8.60319576 25.5 8.26724498 25.836 8.26724498 26.25 8.26724498 26.664 8.60319576 27 9.01881271 27L10.5219482 27C10.9375651 27 11.2735159 26.664 11.2735159 26.25 11.2735159 25.836 10.9375651 25.5 10.5219482 25.5zM14.2797868 25.5L13.5282191 25.5C13.1126021 25.5 12.7766513 25.836 12.7766513 26.25 12.7766513 26.664 13.1126021 27 13.5282191 27L14.2797868 27C14.6954037 27 15.0313545 26.664 15.0313545 26.25 15.0313545 25.836 14.6954037 25.5 14.2797868 25.5zM18.7891931 25.5L17.2860577 25.5C16.8704407 25.5 16.53449 25.836 16.53449 26.25 16.53449 26.664 16.8704407 27 17.2860577 27L18.7891931 27C19.2048101 27 19.5407609 26.664 19.5407609 26.25 19.5407609 25.836 19.2048101 25.5 18.7891931 25.5zM21.261851 25.7175C21.1258172 25.86 21.0438963 26.055 21.0438963 26.25 21.0438963 26.445 21.1258172 26.64 21.261851 26.7825 21.4038973 26.9175 21.6000564 27 21.795464 27 21.9908717 27 22.1862793 26.9175 22.3290771 26.7825 22.4643593 26.64 22.5470318 26.445 22.5470318 26.25 22.5470318 26.055 22.4643593 25.86 22.3290771 25.7175 22.0434814 25.44 21.5316638 25.44 21.261851 25.7175zM36.0752508 18.75C35.1162504 18.75 34.2196301 19.01175 33.4447638 19.46025 32.6698975 19.01175 31.7732772 18.75 30.8142768 18.75 27.9139769 18.75 25.5533027 21.105 25.5533027 24 25.5533027 26.895 27.9139769 29.25 30.8142768 29.25 31.7732772 29.25 32.6698975 28.98825 33.4447638 28.53975 34.2196301 28.98825 35.1162504 29.25 36.0752508 29.25 38.9755507 29.25 41.3362249 26.895 41.3362249 24 41.3362249 21.105 38.9755507 18.75 36.0752508 18.75zM34.5721154 24C34.5721154 25.0455 34.1392124 25.9905 33.4447638 26.6715 32.7503152 25.9905 32.3174122 25.0455 32.3174122 24 32.3174122 22.9545 32.7503152 22.0095 33.4447638 21.3285 34.1392124 22.0095 34.5721154 22.9545 34.5721154 24zM27.0564381 24C27.0564381 21.93225 28.7422045 20.25 30.8142768 20.25 31.288516 20.25 31.7387051 20.3475 32.1573283 20.50875 31.3253428 21.43725 30.8142768 22.659 30.8142768 24 30.8142768 25.341 31.3253428 26.56275 32.1573283 27.49125 31.7387051 27.6525 31.288516 27.75 30.8142768 27.75 28.7422045 27.75 27.0564381 26.06775 27.0564381 24zM36.0752508 27.75C35.6010116 27.75 35.1508225 27.6525 34.7321993 27.49125 35.5641848 26.56275 36.0752508 25.341 36.0752508 24 36.0752508 22.659 35.5641848 21.43725 34.7321993 20.50875 35.1508225 20.3475 35.6010116 20.25 36.0752508 20.25 38.1473231 20.25 39.8330895 21.93225 39.8330895 24 39.8330895 26.06775 38.1473231 27.75 36.0752508 27.75zM6.20419158 16.5L10.7135979 16.5 11.8334338 16.5 16.3428402 16.5C17.2770389 16.5 18.0376254 15.741 18.0376254 14.80875L18.0376254 8.80875 18.0376254 7.69125C18.0376254 6.759 17.2770389 6 16.3428402 6L10.7135979 6 6.20419158 6C5.26999289 6 4.50940635 6.759 4.50940635 7.69125L4.50940635 14.80875C4.50940635 15.741 5.26999289 16.5 6.20419158 16.5zM9.01881271 12L6.01254181 12 6.01254181 10.5 9.01881271 10.5 9.01881271 12zM6.01254181 14.80875L6.01254181 13.5 9.01881271 13.5 9.01881271 14.80875C9.01881271 14.874 9.03083779 14.93625 9.03835347 15L6.20419158 15C6.09822053 15 6.01254181 14.9145 6.01254181 14.80875zM16.53449 12L13.5282191 12 13.5282191 10.69125C13.5282191 10.5855 13.6138978 10.5 13.7198688 10.5L16.3428402 10.5C16.4082266 10.5 16.4706067 10.488 16.53449 10.4805L16.53449 12zM16.3428402 15L13.5086783 15C13.516194 14.93625 13.5282191 14.874 13.5282191 14.80875L13.5282191 13.5 16.53449 13.5 16.53449 14.80875C16.53449 14.9145 16.4488112 15 16.3428402 15zM16.3428402 7.5C16.4488112 7.5 16.53449 7.5855 16.53449 7.69125L16.53449 8.80875C16.53449 8.9145 16.4488112 9 16.3428402 9L13.7198688 9C12.7856702 9 12.0250836 9.759 12.0250836 10.69125L12.0250836 14.80875C12.0250836 14.9145 11.9394049 15 11.8334338 15L10.7135979 15C10.6076269 15 10.5219482 14.9145 10.5219482 14.80875L10.5219482 7.69125C10.5219482 7.5855 10.6076269 7.5 10.7135979 7.5L16.3428402 7.5zM6.20419158 7.5L9.03835347 7.5C9.03083779 7.56375 9.01881271 7.626 9.01881271 7.69125L9.01881271 9 6.01254181 9 6.01254181 7.69125C6.01254181 7.5855 6.09822053 7.5 6.20419158 7.5z"/>
    </g>
  </g>
</svg>
