<?xml version="1.0" encoding="UTF-8"?>
<svg width="15px" height="19px" viewBox="0 0 15 19" version="1.1" xmlns="http://www.w3.org/2000/svg" xmlns:xlink="http://www.w3.org/1999/xlink">
    <!-- Generator: Sketch 48.2 (47327) - http://www.bohemiancoding.com/sketch -->
    <title>forum-user</title>
    <desc>Created with Sketch.</desc>
    <defs>
        <linearGradient x1="50%" y1="0%" x2="50%" y2="100%" id="linearGradient-1">
            <stop stop-color="#8DEEC6" offset="0%"></stop>
            <stop stop-color="#54D894" offset="100%"></stop>
        </linearGradient>
    </defs>
    <g id="Passos-1-de-4" stroke="none" stroke-width="1" transform="translate(-36.000000, 0.000000)">
        <g fill-rule="nonzero" id="Seus-dados">
            <g transform="translate(36.000000, 0.000000)">
                <g id="forum-user">
                    <path d="M7.50003049,10.1205425 C10.2610976,10.1203873 11.2545122,7.30525163 11.5146341,4.99280882 C11.835,2.14401961 10.5121646,0 7.50003049,0 C4.48838415,0 3.16481707,2.14386438 3.48542683,4.99277778 C3.74579268,7.30518954 4.73890244,10.1207598 7.50003049,10.1205425 Z" id="Shape"></path>
                    <path d="M14.9689329,16.8239412 C14.93875,15.9265948 14.8354878,15.0251814 14.6817073,14.1418056 C14.4953963,13.0716895 14.2582622,11.5028546 13.3407622,10.8054739 C12.8101524,10.4022516 12.1230488,10.2699657 11.5156098,10.0268154 C11.2199695,9.90853105 10.955122,9.79105392 10.7065549,9.65733987 C9.86759146,10.5941765 8.77362805,11.0842647 7.49966463,11.0843268 C6.22606707,11.0843268 5.13222561,10.5942386 4.29335366,9.65733987 C4.04478659,9.79108497 3.77993902,9.90859314 3.48429878,10.0268154 C2.87685976,10.2699657 2.1897561,10.4022206 1.65920732,10.8054739 C0.741646341,11.5028546 0.504542683,13.0716895 0.318262195,14.1418056 C0.16445122,15.0251814 0.0611585366,15.9265948 0.0310060976,16.8239412 C0.00765243902,17.5189624 0.344664634,17.616384 0.915670732,17.8262222 C1.63070122,18.0888072 2.36890244,18.2837435 3.11204268,18.4435359 C4.54731707,18.7521618 6.02676829,18.9893824 7.49987805,19 C8.9729878,18.9893513 10.452439,18.7521618 11.8877134,18.4435359 C12.6308537,18.2838056 13.3691159,18.0888693 14.0840854,17.8262222 C14.6553049,17.6164461 14.9922866,17.5190245 14.9689329,16.8239412 Z" id="Shape"></path>
                </g>
            </g>
        </g>
    </g>
</svg>
